<svg id="brain" xmlns="http://www.w3.org/2000/svg" width="840" height="440" viewBox="0 0 840 440">
  <defs>
    <style>
      .cls-1, .cls-2, .cls-4, .cls-5 {
        fill: #fff;
      }

      .cls-1 {
        fill-rule: evenodd;
      }

      .cls-2 {
        font-size: 48px;
      }

      .cls-2, .cls-5 {
        text-anchor: end;
      }

      .cls-2, .cls-4, .cls-5 {
        font-family: Exo;
      }

      .cls-3 {
        font-weight: 200;
      }

      .cls-4 {
        font-size: 76px;
      }

      .cls-4, .cls-5 {
        font-weight: 300;
      }

      .cls-5 {
        font-size: 54px;
      }
    </style>
  </defs>
  <path class="cls-1" d="M0.418,255.274l-0.836-.548,19-29,0.836,0.548Z"/>
  <path class="cls-1" d="M19.493,226.082l-0.986-.164,11-66,0.986,0.164Z"/>
  <path class="cls-1" d="M30.412,160.284l-0.823-.568,49-71,0.823,0.568Z"/>
  <path class="cls-1" d="M79.31,89.392l-0.62-.785,57-45,0.62,0.785Z"/>
  <path class="cls-1" d="M136.16,44.474l-0.32-.947,65-22,0.32,0.947Z"/>
  <path class="cls-1" d="M201,22V21h67v1H201Z"/>
  <path class="cls-1" d="M268.219,21.45l-0.438-.9,39-19,0.438,0.9Z"/>
  <path class="cls-1" d="M307,2V1h27V2H307Z"/>
  <path class="cls-1" d="M333.821,2.467l0.359-.933,52,20-0.358.933Z"/>
  <path class="cls-1" d="M408.5,40.015l1-.03,1,33-1,.03Z"/>
  <path class="cls-1" d="M410.289,39.592l-0.578.816-24-17,0.578-.816Z"/>
  <path class="cls-1" d="M409.773,39.554l0.454,0.892-61,31-0.453-.892Z"/>
  <path class="cls-1" d="M408.755,72.436l0.49-.872,48,27-0.49.872Z"/>
  <path class="cls-1" d="M456.666,99.372l0.668-.743,20,18-0.67.744Z"/>
  <path class="cls-1" d="M476.555,117.228l0.89-.456,19,37-0.89.456Z"/>
  <path class="cls-1" d="M495.505,153.932l0.99,0.136-9,66-0.99-.136Z"/>
  <path class="cls-1" d="M486.571,219.743l0.858,0.514-6,10-0.858-.514Z"/>
  <path class="cls-1" d="M480.708,228.594l0.584,0.812-32,23-0.584-.812Z"/>
  <path class="cls-1" d="M449.041,251.5l-0.083,1-24-2,0.084-1Z"/>
  <path class="cls-1" d="M424.576,249.735l0.848,0.53-10,16-0.848-.53Z"/>
  <path class="cls-1" d="M414.668,265.626l0.664,0.748-18,16-0.664-.748Z"/>
  <path class="cls-1" d="M396.768,281.557l0.464,0.886-67,35-0.463-.886Z"/>
  <path class="cls-1" d="M330.058,316.5l-0.116.994-17-2,0.116-.994Z"/>
  <path class="cls-1" d="M313.332,314.626l-0.664.748-36-32,0.664-.748Z"/>
  <path class="cls-1" d="M276.613,281.683l0.774,0.634-18,22-0.774-.634Z"/>
  <path class="cls-1" d="M258.755,303.564l0.49,0.872-16,9-0.49-.872Z"/>
  <path class="cls-1" d="M243.52,312.86l0.96,0.28-7,24-0.96-.28Z"/>
  <path class="cls-1" d="M236.573,336.74l0.854,0.52-14,23-0.854-.52Z"/>
  <path class="cls-1" d="M222.646,359.646l0.708,0.708-17,17-0.708-.708Z"/>
  <path class="cls-1" d="M205.51,377.1l0.98-.2,5,25-0.98.2Z"/>
  <path class="cls-1" d="M210.5,402.029l1-.058,2,35-1,.058Z"/>
  <path class="cls-1" d="M213.272,436.58l-0.544.84-17-11,0.544-.84Z"/>
  <path class="cls-1" d="M196.444,425.771l-0.888.458-17-33,0.889-.458Z"/>
  <path class="cls-1" d="M178.912,392.508l0.176,0.984-39,7-0.176-.984Z"/>
  <path class="cls-1" d="M140.078,399.506l-0.156.988-38-6,0.156-.988Z"/>
  <path class="cls-1" d="M102.331,393.625l-0.662.75-43-38,0.662-.75Z"/>
  <path class="cls-1" d="M59.451,356.215l-0.9-.43,10-21,0.9,0.43Z"/>
  <path class="cls-1" d="M69.171,334.53l-0.342.94-22-8,0.342-.94Z"/>
  <path class="cls-1" d="M47.478,326.853l-0.956.294-16-52,0.956-.294Z"/>
  <path class="cls-1" d="M31.271,274.58l-0.542.84-31-20,0.542-.84Z"/>
  <path class="cls-1" d="M425.456,251.205l-0.912-.41,18-40,0.912,0.41Z"/>
  <path class="cls-1" d="M442.507,211.082l0.986-.164,7,42-0.986.164Z"/>
  <path class="cls-1" d="M441.785,211.452l0.43-.9,40,19-0.43.9Z"/>
  <path class="cls-1" d="M441.906,211.491l0.188-.982,47,9-0.188.982Z"/>
  <path class="cls-1" d="M442.369,211.338l-0.738-.676,54-59,0.738,0.676Z"/>
  <path class="cls-1" d="M442.447,212.224l-0.894-.448,36-72,0.894,0.448Z"/>
  <path class="cls-1" d="M478.5,141.022l-1-.044,1-23,1,0.044Z"/>
  <path class="cls-1" d="M477.866,139.518l0.268,0.964-43,12-0.268-.964Z"/>
  <path class="cls-1" d="M434.5,152.066l0.992-.132,8,60-0.992.132Z"/>
  <path class="cls-1" d="M434.523,151.851l0.954,0.3-25,80-0.954-.3Z"/>
  <path class="cls-1" d="M410.268,232.422l-0.536-.844,33-21,0.536,0.844Z"/>
  <path class="cls-1" d="M436.263,152.575l-0.526.85-81-50,0.526-.85Z"/>
  <path class="cls-1" d="M355.38,103.325l-0.76-.65,54-63,0.76,0.651Z"/>
  <path class="cls-1" d="M455.535,98.816l0.93,0.368-21,53-0.93-.368Z"/>
  <path class="cls-1" d="M455.761,98.561l0.478,0.878-11,6-0.478-.878Z"/>
  <path class="cls-1" d="M444.511,104.9l0.978,0.208-10,47-0.978-.208Z"/>
  <path class="cls-1" d="M445.338,104.631l-0.676.738-36-33,0.676-.737Z"/>
  <path class="cls-1" d="M408.751,71.566l0.5,0.867-54,31-0.5-.868Z"/>
  <path class="cls-1" d="M408.524,72.155l0.952-.309,26,80-0.952.31Z"/>
  <path class="cls-1" d="M311.375,27.331l-0.749-.663,23-26,0.748,0.663Z"/>
  <path class="cls-1" d="M311.494,26.924l-0.988.152-4-26,0.988-.152Z"/>
  <path class="cls-1" d="M267.945,22.5l0.11-.994,45,5-0.11.994Z"/>
  <path class="cls-1" d="M312.613,26.317l0.774-.633,36,44-0.774.633Z"/>
  <path class="cls-1" d="M349.4,70.305l-0.792-.611,37-48,0.792,0.611Z"/>
  <path class="cls-1" d="M348.51,69.1l0.98-.2,7,34-0.98.2Z"/>
  <path class="cls-1" d="M355.5,102.977l1,0.046-4,87-1-.046Z"/>
  <path class="cls-1" d="M352.206,190.456l-0.412-.912,84-38,0.412,0.912Z"/>
  <path class="cls-1" d="M351.71,190.407l0.58-.814,59,42-0.58.814Z"/>
  <path class="cls-1" d="M410.515,230.876l0.97,0.248-13,51-0.969-.247Z"/>
  <path class="cls-1" d="M410.6,230.705l0.808,0.59-35,48-0.808-.59Z"/>
  <path class="cls-1" d="M375.958,279.5l0.083-1,24,2-0.084,1Z"/>
  <path class="cls-1" d="M374.673,279.622l0.654,0.756-44,38-0.654-.756Z"/>
  <path class="cls-1" d="M313.468,316.176l-0.936-.352,24-64,0.936,0.352Z"/>
  <path class="cls-1" d="M336.5,251.962l1,0.076-5,66-1-.076Z"/>
  <path class="cls-1" d="M336.72,252.414l0.56-.828,40,27-0.56.828Z"/>
  <path class="cls-1" d="M277.235,283.441l-0.47-.882,60-32,0.47,0.882Z"/>
  <path class="cls-1" d="M337.486,252.118l-0.972-.236,15-62,0.972,0.236Z"/>
  <path class="cls-1" d="M351.736,189.576l0.528,0.848-53,33-0.528-.848Z"/>
  <path class="cls-1" d="M298.628,223.334l0.744-.668,9,10-0.744.668Z"/>
  <path class="cls-1" d="M308.341,233.366l-0.682-.732,45-42,0.682,0.732Z"/>
  <path class="cls-1" d="M298.531,222.828l0.938,0.344-22,60-0.938-.344Z"/>
  <path class="cls-1" d="M307.577,233.733l0.846,0.534-31,49-0.846-.534Z"/>
  <path class="cls-1" d="M307.747,235.431l0.506-.862,29,17-0.506.862Z"/>
  <path class="cls-1" d="M300.387,222.683l-0.774.634-59-72,0.774-.634Z"/>
  <path class="cls-1" d="M240.5,150.986l1,0.028-2,73-1-.028Z"/>
  <path class="cls-1" d="M240.7,150.6L241.3,151.4l-68,52L172.7,202.6Z"/>
  <path class="cls-1" d="M240.892,151.512l0.216,0.976-68,15-0.216-.976Z"/>
  <path class="cls-1" d="M241.46,151.8l-0.92.392-41-96,0.92-.393Z"/>
  <path class="cls-1" d="M200.224,56.447l-0.448-.894,70-35,0.448,0.894Z"/>
  <path class="cls-1" d="M200.5,56.014l-1-.029,1-35,1,0.029Z"/>
  <path class="cls-1" d="M200.091,56.508l-0.182.983-65-12,0.182-.983Z"/>
  <path class="cls-1" d="M199.624,56.671l0.752,0.658-28,32-0.752-.659Z"/>
  <path class="cls-1" d="M171.584,89.277l0.832-.555,8,12-0.832.554Z"/>
  <path class="cls-1" d="M180.451,101.215l-0.9-.43,21-44,0.9,0.431Z"/>
  <path class="cls-1" d="M179.682,101.386l0.636-.772,62,51-0.636.772Z"/>
  <path class="cls-1" d="M178.79,99.546l0.42,0.908-13,6-0.42-.908Z"/>
  <path class="cls-1" d="M166.466,106.181l-0.932-.362,7-18,0.932,0.362Z"/>
  <path class="cls-1" d="M178.5,100.955l1,0.09-6,66-1-.09Z"/>
  <path class="cls-1" d="M166.5,106.049l1-.1,6,61-1,.1Z"/>
  <path class="cls-1" d="M167.4,106.7l-0.792.61-20-26,0.792-.61Z"/>
  <path class="cls-1" d="M146.821,81.467l0.359-.933,26,10-0.358.933Z"/>
  <path class="cls-1" d="M173.388,90.685l-0.776.631-26-32,0.776-.631Z"/>
  <path class="cls-1" d="M146.5,59.022l1-.043,1,23-1,.043Z"/>
  <path class="cls-1" d="M146.009,59.5l-0.018-1,55-1,0.018,1Z"/>
  <path class="cls-1" d="M146.354,57.646l-0.708.707-12-12,0.708-.707Z"/>
  <path class="cls-1" d="M77.962,91.5l0.077-1,13,1-0.077,1Z"/>
  <path class="cls-1" d="M90.646,92.354l0.707-.707,9,9-0.708.708Z"/>
  <path class="cls-1" d="M92.369,93.338l-0.738-.675,43-47,0.738,0.675Z"/>
  <path class="cls-1" d="M100.422,101.268l-0.844-.536,35-55,0.844,0.537Z"/>
  <path class="cls-1" d="M60.879,169.515l0.242,0.97-12,3-0.243-.97Z"/>
  <path class="cls-1" d="M49.472,173.165l-0.944-.33,29-83,0.944,0.33Z"/>
  <path class="cls-1" d="M61.052,170.5l-0.1-.994,38-4,0.1,0.994Z"/>
  <path class="cls-1" d="M98.646,165.646l0.707,0.708-22,22-0.707-.708Z"/>
  <path class="cls-1" d="M77.364,187.657l-0.728.686-16-17,0.728-.686Z"/>
  <path class="cls-1" d="M50.257,172.571l-0.514.858-20-12,0.514-.858Z"/>
  <path class="cls-1" d="M49.564,172.754l0.871,0.491-31,55-0.871-.491Z"/>
  <path class="cls-1" d="M18.5,228.028l1-.056,1,18-1,.056Z"/>
  <path class="cls-1" d="M19.776,245.553l0.447,0.894-20,10-0.447-.894Z"/>
  <path class="cls-1" d="M20.529,246.167l0.942-.334,11,31-0.942.334Z"/>
  <path class="cls-1" d="M32.348,277.359l-0.7-.718,33-32,0.7,0.718Z"/>
  <path class="cls-1" d="M64.989,244.5l0.022,1-45,1-0.022-1Z"/>
  <path class="cls-1" d="M19.818,228.466l0.364-.932,46,18-0.364.932Z"/>
  <path class="cls-1" d="M66.487,245.885l-0.973.23-17-72,0.973-.23Z"/>
  <path class="cls-1" d="M60.5,171.034l1-.068,5,74-1,.068Z"/>
  <path class="cls-1" d="M66.489,245.1l-0.979-.206,12-57,0.978,0.206Z"/>
  <path class="cls-1" d="M64.689,246.391l0.622-.782,39,31-0.622.782Z"/>
  <path class="cls-1" d="M103.619,276.676l0.762,0.648-23,27-0.761-.648Z"/>
  <path class="cls-1" d="M80.7,303.6l0.6,0.8-33,25-0.6-.8Z"/>
  <path class="cls-1" d="M80.527,305.163l0.945-.326,10,29-0.945.326Z"/>
  <path class="cls-1" d="M90.955,333.5l0.09,1-22,2-0.09-1Z"/>
  <path class="cls-1" d="M90.708,333.594l0.584,0.812-32,23-0.584-.812Z"/>
  <path class="cls-1" d="M97.993,167.5l0.013-1,76,1-0.014,1Z"/>
  <path class="cls-1" d="M173.5,167.972l1,0.056-2,36-1-.056Z"/>
  <path class="cls-1" d="M171.933,203.505l0.134,0.99-59,8-0.134-.99Z"/>
  <path class="cls-1" d="M113.292,212.406l-0.584-.812,61-44,0.586,0.812Z"/>
  <path class="cls-1" d="M113.478,212.854l-0.956.292-14-46,0.957-.292Z"/>
  <path class="cls-1" d="M113.283,212.588l-0.566.824-35-24,0.566-.824Z"/>
  <path class="cls-1" d="M64.291,246.407l-0.581-.814,49-35,0.582,0.814Z"/>
  <path class="cls-1" d="M112.628,211.334l0.744-.668,43,48-0.744.668Z"/>
  <path class="cls-1" d="M156.478,259.148l-0.956-.3,17-55,0.956,0.3Z"/>
  <path class="cls-1" d="M172.864,204.481l0.272-.962,67,19-0.272.962Z"/>
  <path class="cls-1" d="M239.969,223.5l0.062-1,32,2-0.062,1Z"/>
  <path class="cls-1" d="M271.646,224.646l0.708,0.708-22,22-0.708-.708Z"/>
  <path class="cls-1" d="M250.458,246.8l-0.916.4-11-25,0.916-.4Z"/>
  <path class="cls-1" d="M272.462,224.81l-0.924.38-30-73,0.924-.38Z"/>
  <path class="cls-1" d="M271.036,225.5l-0.072-1,28-2,0.072,1Z"/>
  <path class="cls-1" d="M251.216,247.451l-0.432-.9,50-24,0.432,0.9Z"/>
  <path class="cls-1" d="M250.508,246.909l0.984,0.182-8,43-0.984-.182Z"/>
  <path class="cls-1" d="M242.707,290.4l0.586-.81,18,13-0.586.81Z"/>
  <path class="cls-1" d="M242.5,290.022l1-.044,1,23-1,.044Z"/>
  <path class="cls-1" d="M206.219,308.45l-0.438-.9,37-18,0.438,0.9Z"/>
  <path class="cls-1" d="M243.079,289.506l-0.158.988-87-14,0.158-.988Z"/>
  <path class="cls-1" d="M238.5,224.03l1-.06,4,67-1,.06Z"/>
  <path class="cls-1" d="M243.1,289.49l-0.2-.98,35-7,0.2,0.98Z"/>
  <path class="cls-1" d="M278.4,281.7l-0.8.6-27-36,0.8-.6Z"/>
  <path class="cls-1" d="M240.44,152.237l-0.88-.474,28-52,0.88,0.474Z"/>
  <path class="cls-1" d="M268.266,99.576l-0.532.848-67-42,0.532-.847Z"/>
  <path class="cls-1" d="M268.426,100.262l-0.852-.524,45-73,0.852,0.525Z"/>
  <path class="cls-1" d="M268.17,100.47l-0.34-.94,83-30,0.34,0.94Z"/>
  <path class="cls-1" d="M267.765,100.442l0.47-.884,32,17-0.47.884Z"/>
  <path class="cls-1" d="M299.745,116.57l0.51,0.86-59,35-0.51-.86Z"/>
  <path class="cls-1" d="M298.5,118.01l1-.02,2,105-1,.02Z"/>
  <path class="cls-1" d="M299.117,117.486l-0.234-.972,58-14,0.234,0.972Z"/>
  <path class="cls-1" d="M298.6,118.3l0.806-.592,53,72-0.806.592Z"/>
  <path class="cls-1" d="M155.5,257.971l1,0.058-1,17-1-.058Z"/>
  <path class="cls-1" d="M154.812,274.537l0.376,0.926-37,15-0.376-.926Z"/>
  <path class="cls-1" d="M118.34,289.634l-0.68.732-14-13,0.68-.732Z"/>
  <path class="cls-1" d="M117.8,289.541l0.4,0.918-37,16-0.4-.918Z"/>
  <path class="cls-1" d="M116.563,289.757l0.874,0.486-25,45-0.874-.486Z"/>
  <path class="cls-1" d="M69.464,335.186l-0.929-.372,12-30,0.928,0.372Z"/>
  <path class="cls-1" d="M103.25,395.433l-0.5-.866,26-15,0.5,0.866Z"/>
  <path class="cls-1" d="M128.571,380.257l0.858-.514,12,20-0.858.514Z"/>
  <path class="cls-1" d="M128.972,379.5l0.056-1,36,2-0.056,1Z"/>
  <path class="cls-1" d="M164.628,380.666l0.744,0.668-9,10-0.744-.668Z"/>
  <path class="cls-1" d="M156.2,390.54l-0.39.92-26-11,0.39-.92Z"/>
  <path class="cls-1" d="M154.73,390.579l0.54,0.842-14,9-0.54-.842Z"/>
  <path class="cls-1" d="M154.962,391.5l0.076-1,26,2-0.076,1Z"/>
  <path class="cls-1" d="M163.712,382.408l0.576-.816,17,12-0.576.816Z"/>
  <path class="cls-1" d="M58.84,357.474l0.32-.948,71,24-0.32.948Z"/>
  <path class="cls-1" d="M91.611,334.314l0.778-.628,38,47-0.778.628Z"/>
  <path class="cls-1" d="M237.354,337.646l-0.708.708-30-30,0.708-.708Z"/>
  <path class="cls-1" d="M206.525,308.155l0.95-.31,17,52-0.95.31Z"/>
  <path class="cls-1" d="M206,308h1v70h-1V308Z"/>
  <path class="cls-1" d="M208.264,307.576l-0.528.848-53-33,0.528-.848Z"/>
  <path class="cls-1" d="M179.905,393.491l0.19-.982,31,6-0.19.982Z"/>
  <path class="cls-1" d="M210.549,398.783l0.9,0.434-13,27-0.9-.434Z"/>
  <path class="cls-1" d="M206.757,376.563l0.486,0.874-27,15-0.486-.874Z"/>
  <path class="cls-1" d="M206.942,376.5l0.116,0.994-43,5-0.116-.994Z"/>
  <path class="cls-1" d="M164.277,381.584l-0.554.832-72-48,0.555-.832Z"/>
  <path class="cls-1" d="M116.555,290.227l0.89-.454,47,92-0.89.454Z"/>
  <path class="cls-1" d="M164.438,382.242l-0.876-.484,42-76,0.876,0.484Z"/>
  <path class="cls-1" d="M154.5,276.047l1-.094,10,106-1,.094Z"/>
  <path class="cls-1" d="M82.257,305.571l-0.514.858-50-30,0.514-.858Z"/>
  <path class="cls-1" d="M31.993,276.5l0.014-1,72,1-0.014,1Z"/>
  <path class="cls-1" d="M118.322,290.382l-0.644-.764,38-32,0.644,0.764Z"/>
  <path class="cls-1" d="M155.831,257.529l0.338,0.942-53,19-0.338-.942Z"/>
  <path class="cls-1" d="M103.494,277.075l-0.988-.15,10-66,0.988,0.15Z"/>
  <path class="cls-1" d="M62.2,170.457l-0.408-.913,47-21,0.408,0.914Z"/>
  <path class="cls-1" d="M108.573,148.739l0.854,0.522-11,18-0.853-.522Z"/>
  <path class="cls-1" d="M108.494,149.921l-0.988.158-8-50,0.988-.158Z"/>
  <path class="cls-1" d="M100.176,100.468l-0.352-.936,48-18,0.352,0.936Z"/>
  <path class="cls-1" d="M106.87,150.483l0.26-.966,67,18-0.26.966Z"/>
  <path class="cls-1" d="M108.291,149.406l-0.582-.812,60-43,0.582,0.812Z"/>
  <path class="cls-1" d="M99.956,101.5l0.088-1,68,6-0.088,1Z"/>
  <path class="cls-1" d="M336.133,252.482l-0.266-.964,76-21,0.266,0.964Z"/>
  <text id="Percept" class="cls-2" x="841.243" y="169.037"><tspan x="841.243">P<tspan class="cls-3">ercept</tspan></tspan></text>
  <text id="Act" class="cls-2" x="841.243" y="240.036"><tspan x="841.243">A<tspan class="cls-3">ct</tspan></tspan></text>
  <text id="Interact" class="cls-2" x="841.042" y="300.437"><tspan x="841.042">I<tspan class="cls-3">nteract</tspan></tspan></text>
  <text id="React" class="cls-2" x="841.025" y="361.146"><tspan x="841.025">R<tspan class="cls-3">eact</tspan></tspan></text>
  <text id="PAIR" class="cls-4" x="593.115" y="81.672">PAIR</text>
  <text id="lab" class="cls-5" x="842.461" y="81.13"><tspan x="842.461">lab</tspan></text>
</svg>
