<svg xmlns="http://www.w3.org/2000/svg" width="198" height="91" viewBox="0 0 198 91">
  <defs>
    <style>
      .cls-1 {
        fill: #2d2d2d;
        fill-rule: evenodd;
      }
    </style>
  </defs>
  <path id="ICG" class="cls-1" d="M0.328,89.359h6.5V1.859h-6.5v87.5Zm73,1.5c15.5,0,25.5-6.125,34.75-15.25l-4.375-4.25c-8.874,8.75-17.5,13.625-30.124,13.625-20.875,0-37-17.25-37-39.375v-0.25c0-22,15.875-39.125,36.875-39.125,13.125,0,21.875,5.5,29.5,12.875l4.625-4.75c-9-8.25-18.374-14-34-14-25.25,0-43.75,20.5-43.75,45.25v0.25C29.827,70.984,48.327,90.859,73.327,90.859Zm90.251,0a52.62,52.62,0,0,0,34.375-13.125V43.984h-35.5v6H191.7V75.109a44.935,44.935,0,0,1-27.875,10c-23.375,0-37.5-16.875-37.5-39.5v-0.25c0-21.125,14.875-39.125,36.125-39.125,13.25,0,21.25,4.5,28.125,10.5l4.25-4.875c-8.75-7.25-17.75-11.5-32-11.5-26.125,0-43.25,21.625-43.25,45.25v0.25C119.577,70.484,135.952,90.859,163.577,90.859Z"/>
</svg>