<svg xmlns="http://www.w3.org/2000/svg" width="359.99" height="65.72" viewBox="0 0 367 67">
  <defs>
    <style>
      .cls-1 {
        fill-rule: evenodd;
      }
    </style>
  </defs>
  <path id="learning" class="cls-1" d="M9.548,50.8h4.333V48.066L10.014,47.6a6.818,6.818,0,0,1-3-.933,4.607,4.607,0,0,1-1.733-2.533A17.013,17.013,0,0,1,4.681,39V-0.135H0.814V39.4q0,6.267,2.167,8.833T9.548,50.8h0Zm23.6,0.333a114.344,114.344,0,0,0,12.6-.733V48.066H34.014a15.428,15.428,0,0,1-7.1-1.3,6.924,6.924,0,0,1-3.367-4.133,27.7,27.7,0,0,1-1-7.967H36.814q4.733,0,7.233-1.967t2.5-6.3a14.414,14.414,0,0,0-1.4-6.933,7.8,7.8,0,0,0-4.267-3.6A22.055,22.055,0,0,0,33.347,14.8a19.539,19.539,0,0,0-8.7,1.6,9.369,9.369,0,0,0-4.567,5.5,33.769,33.769,0,0,0-1.4,10.967A35.378,35.378,0,0,0,20.014,43.8a9.6,9.6,0,0,0,4.433,5.633q3.1,1.7,8.7,1.7h0Zm-10.667-19.2a29.776,29.776,0,0,1,.967-8.667,6.944,6.944,0,0,1,3.267-4.233A14.328,14.328,0,0,1,33.347,17.8a17.074,17.074,0,0,1,5.733.767,5.264,5.264,0,0,1,3,2.633,11.834,11.834,0,0,1,.933,5.2q0,3.134-1.533,4.333t-4.933,1.2H22.481Zm40.4,19.2a21.7,21.7,0,0,0,6.133-.967,50.627,50.627,0,0,0,5.867-2.1A25.708,25.708,0,0,0,77.947,46.6l0.8,4.133H81.68v-25.4q0-5.466-2.933-8.1T69.48,14.6a94,94,0,0,0-12.467.867V17.8H68.147q5.466,0,7.567,1.933t2.1,5.8v4.933h-13q-5.267,0-8.1,2.533a8.747,8.747,0,0,0-2.833,6.867v2.4a8.519,8.519,0,0,0,2.5,6.5,9.067,9.067,0,0,0,6.5,2.367h0Zm1.6-3.067a7.549,7.549,0,0,1-4.733-1.533q-2-1.533-2-4.933V39.932A6.669,6.669,0,0,1,59.613,35q1.866-1.866,5.8-2l12.4-.467V44.6q-0.734.267-3.067,1.1T69.48,47.3a20.305,20.305,0,0,1-5,.767h0Zm27.867,2.667h3.867V24.6a26.733,26.733,0,0,1,6.067-4.5,14.15,14.15,0,0,1,6.4-1.367,22.557,22.557,0,0,1,3.8.4V15.2a12.815,12.815,0,0,0-3.467-.4,13.492,13.492,0,0,0-6.9,1.8,23.822,23.822,0,0,0-5.9,5l-1-6.4H92.347V50.732Zm27.266,0h3.867V21.866a39.122,39.122,0,0,1,6.233-2.833,19.7,19.7,0,0,1,6.233-.9,7.709,7.709,0,0,1,5.967,2.433,8.768,8.768,0,0,1,2.233,6.167v24h3.867v-24.4A12.588,12.588,0,0,0,145.18,18q-2.835-3.4-8.167-3.4a20.346,20.346,0,0,0-7.067,1.3,29.486,29.486,0,0,0-6.466,3.3l-1-4h-2.867V50.732Zm39.733-42.2h2.6a0.831,0.831,0,0,0,.867-1V2.8a0.831,0.831,0,0,0-.867-1h-2.6a0.884,0.884,0,0,0-1,1V7.532a0.923,0.923,0,0,0,1,1h0Zm-0.666,42.2h3.866V15.2H158.68V50.732Zm14.733,0h3.866V21.866a39.128,39.128,0,0,1,6.234-2.833,19.7,19.7,0,0,1,6.233-.9,7.711,7.711,0,0,1,5.967,2.433,8.773,8.773,0,0,1,2.233,6.167v24h3.867v-24.4A12.583,12.583,0,0,0,198.979,18q-2.834-3.4-8.166-3.4a20.337,20.337,0,0,0-7.067,1.3,29.494,29.494,0,0,0-6.467,3.3l-1-4h-2.866V50.732Zm70.266-35.6H224.746q-13.4,0-13.4,11.4a12.725,12.725,0,0,0,1.5,6.167,9.354,9.354,0,0,0,5.1,4.167q-6.067,1.2-6.067,6.133a5.2,5.2,0,0,0,.9,3.033,5.926,5.926,0,0,0,2.567,2.033,10.22,10.22,0,0,0-4.4,3.167,8.046,8.046,0,0,0-1.667,5.167v1.733a7.607,7.607,0,0,0,3.167,6.6Q215.611,67,221.012,67h9.734q6.266,0,9.6-2.633a9,9,0,0,0,3.333-7.5v-1.6q0-4.734-2.933-7.1T231.679,45.8h-12.4a4.773,4.773,0,0,1-2.767-.8,2.783,2.783,0,0,1-1.166-2.467,3.346,3.346,0,0,1,1.7-3.2,10.727,10.727,0,0,1,5.033-.933h5.467q6.6,0,9.533-3.133a10.8,10.8,0,0,0,2.933-7.667,13.218,13.218,0,0,0-.8-5,7.645,7.645,0,0,0-1.866-2.867,18.79,18.79,0,0,0-2.467-1.8l8.8-.533V15.132ZM236.412,27.2q0,8.067-9.266,8.067h-4.067q-8.135,0-8.133-8.6,0-4.466,2.333-6.467t6.733-2h3.8q8.6,0,8.6,9h0Zm-5.2,21.667q4.866,0,6.867,1.7a6.156,6.156,0,0,1,2,4.967v1.533a5.969,5.969,0,0,1-2.533,5.233,12.36,12.36,0,0,1-7.134,1.767h-8.6a11.809,11.809,0,0,1-6.566-1.533,5.565,5.565,0,0,1-2.3-5V55.866a6.022,6.022,0,0,1,2.466-5.233,10.036,10.036,0,0,1,6-1.767h9.8Z"/>
  <path id="LAB" class="cls-1" d="M263.614,50.732h18.6V44.6h-17a5.976,5.976,0,0,1-3.866-1.133q-1.4-1.133-1.4-4.133V1.6h-6.734V40.332q0,5.6,2.667,8t7.733,2.4h0Zm22.2,0h6.933l4.267-12.867h18.8l4.333,12.867h7L310.747,1.6h-8.533Zm12.8-18.933,7.8-24.4,7.733,24.4H298.614Zm35.333,18.933h19q7,0,10.533-3.1t3.533-10.5q0-5.2-2.6-8.133a11.864,11.864,0,0,0-6-3.8,8.381,8.381,0,0,0,4.967-3.667,12.891,12.891,0,0,0,1.9-7.267Q365.28,1.6,352.213,1.6H333.947V50.732Zm6.733-27.8V7.6h11.467q6.732,0,6.733,7.2a9.211,9.211,0,0,1-1.767,5.933,5.725,5.725,0,0,1-4.7,2.2H340.68Zm0,21.8v-16.6h12.067a7.9,7.9,0,0,1,5.633,2.1A7.537,7.537,0,0,1,360.613,36q0,4.8-2.033,6.767a8.054,8.054,0,0,1-5.833,1.967H340.68Z"/>
</svg>
