<svg xmlns="http://www.w3.org/2000/svg" width="269" height="112" viewBox="0 0 269 112">
  <defs>
    <style>
      .cls-1 {
        fill: #fff;
        fill-rule: evenodd;
      }
    </style>
  </defs>
  <path id="learning" class="cls-1" d="M136.391,79.8V77.174h-3.136a1.257,1.257,0,0,1-1.248-1.248V55.158h-2.624V75.926a3.879,3.879,0,0,0,3.872,3.872h3.136Zm21.055,0V77.174h-15.04a1.257,1.257,0,0,1-1.248-1.248v-4.1h16.288V65.11a3.879,3.879,0,0,0-3.9-3.872H142.406a3.877,3.877,0,0,0-3.871,3.872V75.926a3.877,3.877,0,0,0,3.871,3.872h15.04ZM141.158,65.11a1.257,1.257,0,0,1,1.248-1.248h11.136a1.257,1.257,0,0,1,1.248,1.248v4.1H141.158v-4.1ZM179.621,79.8V65.11a3.879,3.879,0,0,0-3.9-3.872H160.71v2.624h15.007a1.257,1.257,0,0,1,1.248,1.248v4.1H160.71v6.72a3.879,3.879,0,0,0,3.872,3.872h15.039ZM163.7,76.806a1.2,1.2,0,0,1-.368-0.88v-4.1h13.631v5.344H164.582A1.2,1.2,0,0,1,163.7,76.806ZM185.381,79.8V65.11a1.257,1.257,0,0,1,1.248-1.248h10.432V61.238H186.629a3.878,3.878,0,0,0-3.872,3.872V79.8h2.624Zm16.448,0V65.11a1.177,1.177,0,0,1,.384-0.88,1.255,1.255,0,0,1,.9-0.368h11.135a1.257,1.257,0,0,1,1.248,1.248V79.8h2.624V65.11a3.878,3.878,0,0,0-3.872-3.872H199.205V79.8h2.624Zm22.207,0V61.238h-2.624V79.8h2.624Zm0-22.016V55.158h-2.624v2.624h2.624Zm6.24,22.016V65.11a1.177,1.177,0,0,1,.384-0.88,1.255,1.255,0,0,1,.9-0.368h11.136a1.257,1.257,0,0,1,1.248,1.248V79.8h2.624V65.11a3.878,3.878,0,0,0-3.872-3.872h-15.04V79.8h2.624Zm34.239,7.328a3.716,3.716,0,0,0,2.752-1.136,3.793,3.793,0,0,0,1.12-2.768V65.11a3.756,3.756,0,0,0-1.12-2.736,3.716,3.716,0,0,0-2.752-1.136H253.38a3.878,3.878,0,0,0-3.872,3.872V75.926A3.879,3.879,0,0,0,253.38,79.8h12.383v3.424a1.257,1.257,0,0,1-1.248,1.248H252.932v2.656h11.583ZM252.5,76.806a1.2,1.2,0,0,1-.368-0.88V65.11a1.257,1.257,0,0,1,1.248-1.248h11.135a1.257,1.257,0,0,1,1.248,1.248V75.926a1.257,1.257,0,0,1-1.248,1.248H253.38A1.2,1.2,0,0,1,252.5,76.806Z"/>
  <path id="lab" class="cls-1" d="M136.391,111.745v-2.624h-3.136a1.257,1.257,0,0,1-1.248-1.248V87.105h-2.624v20.768a3.879,3.879,0,0,0,3.872,3.872h3.136Zm21.247,0V97.057a3.879,3.879,0,0,0-3.9-3.872H138.727v2.624h15.007a1.257,1.257,0,0,1,1.248,1.248v4.1H138.727v6.72a3.879,3.879,0,0,0,3.872,3.872h15.039Zm-15.919-2.992a1.2,1.2,0,0,1-.368-0.88v-4.1h13.631v5.344H142.6A1.2,1.2,0,0,1,141.719,108.753Zm33.519,2.992a3.879,3.879,0,0,0,3.872-3.872V97.057a3.879,3.879,0,0,0-3.872-3.872H162.822v-6.08H160.2v24.64h15.04Zm-12.032-2.992a1.177,1.177,0,0,1-.384-0.88V97.057a1.177,1.177,0,0,1,.384-0.88,1.255,1.255,0,0,1,.9-0.368h11.136a1.257,1.257,0,0,1,1.248,1.248v10.816a1.257,1.257,0,0,1-1.248,1.248H164.1A1.255,1.255,0,0,1,163.206,108.753Z"/>
  <path id="shape" class="cls-1" d="M0,0H16V80H0V0ZM32,16H48v96H32V16ZM64,0H80V80H64V0ZM16,64H32V80H16V64Zm64,0h32V80H80V64ZM48,96h64v16H48V96Z"/>
</svg>
