<svg xmlns="http://www.w3.org/2000/svg" width="360" height="70" viewBox="0 0 360 70">
  <defs>
    <style>
      .cls-1 {
        fill-rule: evenodd;
      }
    </style>
  </defs>
  <path id="learning" class="cls-1" d="M9.548,53.8h4.333V51.066L10.014,50.6a6.818,6.818,0,0,1-3-.933,4.607,4.607,0,0,1-1.733-2.533A14.555,14.555,0,0,1,4,42V3H0V42a14.806,14.806,0,0,0,2.981,9.232Q5.147,53.8,9.548,53.8h0Zm21.6,0.333a114.344,114.344,0,0,0,12.6-.733V51.066H32.014a15.428,15.428,0,0,1-7.1-1.3,6.924,6.924,0,0,1-3.367-4.133,27.7,27.7,0,0,1-1-7.967H34.814q4.733,0,7.233-1.967t2.5-6.3a14.414,14.414,0,0,0-1.4-6.933,7.8,7.8,0,0,0-4.267-3.6A22.055,22.055,0,0,0,31.347,17.8a19.539,19.539,0,0,0-8.7,1.6,9.369,9.369,0,0,0-4.567,5.5,33.769,33.769,0,0,0-1.4,10.967A35.378,35.378,0,0,0,18.014,46.8a9.6,9.6,0,0,0,4.433,5.633Q25.547,54.132,31.147,54.132Zm-10.667-19.2a29.776,29.776,0,0,1,.967-8.667,6.945,6.945,0,0,1,3.267-4.233A14.328,14.328,0,0,1,31.347,20.8a17.074,17.074,0,0,1,5.733.767,5.264,5.264,0,0,1,3,2.633,11.834,11.834,0,0,1,.933,5.2q0,3.134-1.533,4.333t-4.933,1.2H20.481Zm39.4,19.2a21.7,21.7,0,0,0,6.133-.967,50.627,50.627,0,0,0,5.867-2.1A25.708,25.708,0,0,0,74.947,49.6l0.8,4.133H78.68v-25.4q0-5.466-2.933-8.1T66.48,17.6a94,94,0,0,0-12.467.867V20.8H65.147q5.466,0,7.567,1.933t2.1,5.8v4.933h-13q-5.267,0-8.1,2.533a8.747,8.747,0,0,0-2.833,6.867v2.4a8.519,8.519,0,0,0,2.5,6.5A9.067,9.067,0,0,0,59.88,54.132Zm1.6-3.067a7.549,7.549,0,0,1-4.733-1.533q-2-1.533-2-4.933V42.932A6.669,6.669,0,0,1,56.613,38q1.866-1.866,5.8-2l12.4-.467V47.6q-0.734.267-3.067,1.1T66.48,50.3A20.3,20.3,0,0,1,61.48,51.066Zm26.867,2.667h3.867V27.6a26.735,26.735,0,0,1,6.067-4.5,14.15,14.15,0,0,1,6.4-1.367,22.557,22.557,0,0,1,3.8.4V18.2a12.815,12.815,0,0,0-3.467-.4,13.49,13.49,0,0,0-6.9,1.8,23.812,23.812,0,0,0-5.9,5l-1-6.4H88.347V53.732Zm26.266,0h3.867V24.866a39.122,39.122,0,0,1,6.233-2.833,19.7,19.7,0,0,1,6.233-.9,7.709,7.709,0,0,1,5.967,2.433,8.768,8.768,0,0,1,2.233,6.167v24h3.867v-24.4A12.588,12.588,0,0,0,140.18,21q-2.835-3.4-8.167-3.4a20.346,20.346,0,0,0-7.067,1.3,29.486,29.486,0,0,0-6.466,3.3l-1-4h-2.867V53.732Zm38.733-42.2h2.6a0.831,0.831,0,0,0,.867-1V5.8a0.831,0.831,0,0,0-.867-1h-2.6a0.884,0.884,0,0,0-1,1v4.733A0.923,0.923,0,0,0,153.346,11.532Zm-0.666,42.2h3.866V18.2H152.68V53.732Zm13.733,0h3.866V24.866a39.128,39.128,0,0,1,6.234-2.833,19.7,19.7,0,0,1,6.233-.9,7.711,7.711,0,0,1,5.967,2.433,8.773,8.773,0,0,1,2.233,6.167v24h3.867v-24.4A12.583,12.583,0,0,0,191.979,21q-2.834-3.4-8.166-3.4a20.337,20.337,0,0,0-7.067,1.3,29.494,29.494,0,0,0-6.467,3.3l-1-4h-2.866V53.732Zm69.266-35.6H216.746q-13.4,0-13.4,11.4a12.725,12.725,0,0,0,1.5,6.167,9.354,9.354,0,0,0,5.1,4.167q-6.067,1.2-6.067,6.133a5.2,5.2,0,0,0,.9,3.033,5.926,5.926,0,0,0,2.567,2.033,10.22,10.22,0,0,0-4.4,3.167,8.046,8.046,0,0,0-1.667,5.167v1.733a7.607,7.607,0,0,0,3.167,6.6Q207.611,70,213.012,70h9.734q6.266,0,9.6-2.633a9,9,0,0,0,3.333-7.5v-1.6q0-4.734-2.933-7.1T223.679,48.8h-12.4a4.773,4.773,0,0,1-2.767-.8,2.783,2.783,0,0,1-1.166-2.467,3.346,3.346,0,0,1,1.7-3.2,10.727,10.727,0,0,1,5.033-.933h5.467q6.6,0,9.533-3.133a10.8,10.8,0,0,0,2.933-7.667,13.218,13.218,0,0,0-.8-5,7.645,7.645,0,0,0-1.866-2.867,18.79,18.79,0,0,0-2.467-1.8l8.8-.533V18.132ZM228.412,30.2q0,8.067-9.266,8.067h-4.067q-8.135,0-8.133-8.6,0-4.466,2.333-6.467t6.733-2h3.8q8.6,0,8.6,9h0Zm-5.2,21.667q4.866,0,6.867,1.7a6.156,6.156,0,0,1,2,4.967v1.533a5.969,5.969,0,0,1-2.533,5.233,12.36,12.36,0,0,1-7.134,1.767h-8.6a11.809,11.809,0,0,1-6.566-1.533,5.565,5.565,0,0,1-2.3-5V58.866a6.022,6.022,0,0,1,2.466-5.233,10.036,10.036,0,0,1,6-1.767h9.8Z"/>
  <path class="cls-1" d="M263,54a134.88,134.88,0,0,0,18,0V48H264a5.143,5.143,0,0,1-5-6c0-12.333,3-24.667,3-37h-7c0,12.667-3,25.333-3,38a11.292,11.292,0,0,0,3,8C257.171,53.171,259.923,53.735,263,54Zm31-35-9,35h7s-0.011-6.028,2-7c2.027-1.042,4.752,0,9,0,4.274,0,6.982-1.045,9,0,2.038,0.975,2,7,2,7h7s-4.667-22.333-9-35h-6c0,15.973,7.022,13.133,7,19-0.007,8.006-19.986,8.041-20,0-0.01-5.775,7-3,7-19C300,18.991,294,19,294,19Zm33,35h19a12.65,12.65,0,0,0,10.48-3.368c2.264-2.224,3.676-5.578,3.533-10.5a13.775,13.775,0,0,0-2.6-8.133A11.9,11.9,0,0,0,351,28a6.1,6.1,0,0,0,2.375-.59A7.062,7.062,0,0,0,356,25a14.017,14.017,0,0,0,2.28-7.735c0.034-4.907-1.64-7.868-3.067-9.3A11.554,11.554,0,0,0,345,5H327V54Zm7-28V11h11a6.054,6.054,0,0,1,4.964,1.166A7.954,7.954,0,0,1,351.88,17.8a9.211,9.211,0,0,1-1.767,5.933,5.977,5.977,0,0,1-1.819,1.531A6.2,6.2,0,0,1,345,26H334Zm0,22V31h12a7.562,7.562,0,0,1,3.86,1.12A7.235,7.235,0,0,1,351,33a9.4,9.4,0,0,1,2.613,6c0.392,3.706-.8,6.158-1.613,7a7.311,7.311,0,0,1-6,2H334ZM313,28,295,38a8.109,8.109,0,0,0,7,4c4.926,0.013,8.963-1.017,9-4,0.118-2.826-4.27-4.613-7-2C301.936,37.976,297.01,38.7,295,38ZM306,3a3,3,0,1,1-3-3A3.014,3.014,0,0,1,306,3Zm-7.793,3.084M305,21a1.637,1.637,0,0,0-1-1,1.569,1.569,0,0,0-1,0,1.6,1.6,0,0,0-1,1,1.57,1.57,0,0,0,0,1,1.637,1.637,0,0,0,1,1A1.581,1.581,0,0,0,305,21Zm-3-8a2,2,0,1,1-2-2A2.01,2.01,0,0,1,302,13Z"/>
</svg>
