<svg version="1.2" xmlns="http://www.w3.org/2000/svg" viewBox="0 0 512 513" width="512" height="513"><style>.a{fill:#002130}.b{fill:#e51f1f}</style><path class="a" d="m512 154.4v204c0 1 0 2.1 0 3.2q-0.1 0.5-0.2 0.9-0.2 0.4-0.5 0.7-0.4 0.3-0.8 0.5-0.4 0.2-0.8 0.3c-8.3 0.3-65.3 0.1-76.3-0.3q-0.4 0-0.8-0.1-0.4-0.2-0.7-0.4-0.3-0.2-0.5-0.5-0.2-0.4-0.3-0.7-0.1-0.1-0.1-0.2 0-0.1-0.1-0.3 0-0.1 0-0.2 0-0.1-0.1-0.2-7.9-37.7-15.8-75.5-7.9-37.5-15.7-75.1-8.2-39.4-16.3-78.7-8.3-39.9-16.5-79.9-4.9-23.6-9.8-47.2c0-0.2-0.1-0.3-0.1-0.5q-0.1-0.6 0.1-1.1 0.1-0.5 0.4-1 0.4-0.4 0.9-0.6 0.5-0.3 1-0.3c10.6-0.3 47.9-0.5 83.1-0.5q0.2 0 0.3 0h13.3c7.4 0 14.8 1.5 21.6 4.3 6.8 2.9 13 7.1 18.2 12.3 5.2 5.3 9.4 11.5 12.2 18.4 2.8 6.9 4.3 14.2 4.3 21.7v97z"/><path class="b" d="m512 439.4v23.2c0 6.3-1.2 12.7-3.6 18.6-2.4 5.9-5.9 11.3-10.4 15.8-4.4 4.6-9.6 8.2-15.4 10.8-5.9 2.5-12.1 3.9-18.4 4v0.2q-0.2 0-0.3 0-0.2 0-0.3 0-0.1-0.1-0.3-0.1-0.1 0-0.3 0c-0.3-0.3-0.4-0.4-0.5-0.5q0 0 0-0.1-0.1 0-0.1 0 0-0.1 0-0.1 0-0.1-0.1-0.1-8.4-40.3-16.8-80.6 0-0.2 0-0.3 0-0.1 0-0.3 0-0.1 0.1-0.2 0-0.1 0-0.3c3.6-0.4 52.1-0.7 63.7-0.3l0.7 0.1q0.4 0 0.7 0.2 0.4 0.2 0.7 0.5 0.2 0.3 0.4 0.6 0.1 0.4 0.2 0.8v0.1c0 1.4 0 2.8 0 4.2v3.8z"/><path class="a" d="m399.2 510q0 0.2 0 0.5 0.1 0.3 0.1 0.5 0 0.3 0 0.6 0.1 0.2 0 0.4-0.1 0.3-0.2 0.5-0.2 0.2-0.4 0.3-0.2 0.1-0.4 0.2h-0.2c-37 0-90.6 0-127.6 0q-0.4 0-0.7-0.1-0.4-0.2-0.6-0.4-0.3-0.3-0.5-0.6-0.1-0.3-0.2-0.7c-2.8-22.8-5.2-45.6-7.9-68.4q-4-34.8-8-69.5-2.1-18.6-4.2-37.3-0.1-0.8-0.5-1.6-0.4-0.8-1-1.3-0.7-0.6-1.5-0.9-0.8-0.3-1.7-0.3h-146.3q-0.9 0-1.7 0.3-0.8 0.3-1.4 0.9-0.7 0.5-1.1 1.3-0.4 0.8-0.5 1.7l-20.1 174.6q0 0.4-0.2 0.7-0.1 0.3-0.4 0.6-0.3 0.2-0.6 0.4-0.3 0.1-0.7 0.2-1 0.1-1.9 0.1h-6.8-6.2q0 0 0 0-0.1 0-0.1 0 0 0 0 0-0.1 0-0.1 0c-7.3-0.1-14.6-1.6-21.3-4.5-6.8-2.9-12.9-7.1-18.1-12.3-5.1-5.3-9.2-11.5-12-18.3-2.8-6.9-4.2-14.2-4.2-21.6v-42.4-39.8q0-65.3 0-130.6 0-0.5 0-0.9v-184.8c0-7 1.3-13.9 3.8-20.4 2.5-6.5 6.2-12.5 10.8-17.7 4.7-5.2 10.3-9.4 16.5-12.6 6.2-3.1 12.9-5 19.8-5.7q0.2-0.1 0.3-0.1 0.1-0.1 0.2-0.1 0.2-0.1 0.3-0.1 0.2 0 0.3 0c4.8-0.1 9.6 0 14.4 0 5.3 0 10.7 0 15.9 0 5.2 0 27.1 0 32.2 0 4.7 0 9.3-0.1 14.1 0q0.4 0 0.8 0.2 0.4 0.1 0.7 0.4 0.3 0.3 0.4 0.7 0.2 0.4 0.2 0.8 0 0.2 0 0.3 0 0.2 0 0.4 0 0.1 0 0.3-0.1 0.1-0.1 0.3c-1.4 12.6-2.9 25.1-4.4 37.9-1.4 12.8-2.8 25.6-4.3 38.4-1.5 12.8-3 25.5-4.4 38.3-1.2 10.4-2.4 20.8-3.6 31.2-1.1 10.4-2.4 20.8-3.6 31.2-1.2 10.3-2.3 20.7-3.5 31.1-0.6 5.7-1.3 11.5-2 17.2-0.1 1.6-0.3 3.2-0.4 5q-0.1 0.4 0 0.8 0.2 0.4 0.4 0.7 0.3 0.3 0.7 0.5 0.3 0.2 0.7 0.3 0.2 0 0.3 0 0.2 0 0.4 0.1 0.1 0 0.3 0 0.1 0 0.3 0 10.2 0.1 20.3 0.1h104.1 2.6q0.5 0 0.9-0.2 0.3-0.2 0.6-0.4 0.3-0.3 0.5-0.7 0.2-0.4 0.2-0.8 0-0.2 0-0.5-1.4-13.2-2.9-26.4-1.4-12.4-2.8-24.7-1.9-15.8-3.7-31.6-1.4-12.2-2.8-24.4-1.8-15.8-3.6-31.5c-0.9-8-1.8-16-2.7-24q-1.9-16-3.7-31.9-1.8-15.6-3.5-31.2-0.3-2.8-0.6-5.5-0.1-0.5 0-0.9 0.2-0.4 0.4-0.7 0.3-0.3 0.7-0.5 0.4-0.2 0.8-0.3c0.8 0 1.6 0.1 2.3 0.1 16.1 0 48.9 0 65 0h9.6q0.3 0 0.5 0.1 0.3 0 0.5 0.2 0.2 0.1 0.4 0.3 0.2 0.1 0.3 0.4 0.1 0.2 0.2 0.5 0.1 0.2 0.2 0.5 0.1 0.2 0.1 0.5 0.1 0.3 0.1 0.6 8.3 39.1 16.7 78.2 8.6 40.6 17.3 81.3 8.1 38.4 16.3 76.7 8.6 40.5 17.2 81 8.1 38.3 16.3 76.6 8.6 40.5 17.2 81 3.3 15.3 6.6 30.6 0 0.3 0.1 0.6z"/></svg>